<?xml version="1.0" encoding="utf-8"?><svg viewBox="0 0 20 20" xmlns="http://www.w3.org/2000/svg" xmlns:xlink="http://www.w3.org/1999/xlink"><style>:root>svg{display:none}:root>svg:target{display:block}</style><svg viewBox="0 0 12 20" id="arrowLeft" xmlns="http://www.w3.org/2000/svg"><path d="M.206 10.287A.61.61 0 010 9.834a.61.61 0 01.206-.453L9.814.197a.667.667 0 01.949 0l1.03.985a.61.61 0 01.207.454.61.61 0 01-.206.453L3.69 9.834l8.103 7.745a.61.61 0 01.206.453.61.61 0 01-.206.454l-1.031.985a.667.667 0 01-.949 0L.206 10.287z"/></svg><svg viewBox="0 0 20 12" id="mail" xmlns="http://www.w3.org/2000/svg"><path d="M18.633 0H12.46a.304.304 0 00-.205.076.229.229 0 00-.088.178c0 .067.03.126.088.177.059.05.127.076.205.076h6.172a.81.81 0 01.547.203.61.61 0 01.234.473v.034l-7.5 4.766a2.19 2.19 0 00-.098.06.531.531 0 01-.078.042c0 .01-.003.016-.01.016-.006 0-.016.006-.029.017 0-.011-.006-.017-.02-.017-.012 0-.019-.005-.019-.016a.532.532 0 01-.156-.102l-1.25-.794-6.035-3.837v-.169A.62.62 0 014.443.71.8.8 0 015 .507h6.094a.295.295 0 00.215-.076.24.24 0 000-.355.295.295 0 00-.215-.076H5c-.378 0-.7.115-.967.346-.267.231-.4.51-.4.837v.811H2.93a1.39 1.39 0 00-.957.347c-.26.23-.391.504-.391.82v1.216H.312a.327.327 0 00-.205.068.222.222 0 00-.087.186c0 .068.029.127.087.177.059.051.127.077.205.077h1.27v1.808H.293a.304.304 0 00-.205.076.229.229 0 00-.088.177c0 .068.03.127.088.178.058.05.127.076.205.076h1.289v2.146H.293a.304.304 0 00-.205.077A.229.229 0 000 9.6c0 .068.03.127.088.177.058.051.127.077.205.077h1.289v.98c0 .315.13.588.39.82.261.23.58.346.958.346h4.59a.304.304 0 00.205-.076.229.229 0 00.088-.178.229.229 0 00-.088-.177.304.304 0 00-.205-.076H2.93l2.636-1.487h9.61l2.597 1.453a.39.39 0 01-.097.026.713.713 0 01-.098.008h-8.71a.304.304 0 00-.206.076.229.229 0 00-.088.177c0 .068.03.127.088.178.059.05.127.076.205.076h8.711a1.4 1.4 0 00.947-.347c.267-.23.4-.504.4-.82V9.99c.313-.057.57-.195.772-.414.202-.22.303-.47.303-.752v-7.64c0-.327-.134-.606-.4-.837A1.427 1.427 0 0018.633 0zM4.219 1.977L9.57 5.392 4.22 8.383V1.977zM2.168 3.161c0-.18.075-.336.225-.465A.794.794 0 012.93 2.5h.703v4.192H2.168V3.161zm.156 8.061a.579.579 0 01-.156-.388V7.2h1.465v1.623c0 .27.091.51.273.718.183.208.41.346.684.414l-2.266 1.268zm16.016-.388a.58.58 0 01-.02.143.937.937 0 01-.058.161l-2.012-1.132h2.09v.828zm.293-1.335H5a.824.824 0 01-.488-.153.662.662 0 01-.274-.371l5.84-3.262 1.074.676a.713.713 0 00.157.101c.065.045.127.085.185.118.059.034.127.051.205.051a.403.403 0 00.205-.05l.205-.119a.551.551 0 01.059-.042.712.712 0 00.078-.06l1.211-.76 5.938 3.33a.573.573 0 01-.264.388.87.87 0 01-.498.153zm.781-1.15l-5.45-3.042 5.45-3.465V8.35z"/></svg></svg>