<svg width="12" height="20" viewBox="0 0 12 20" fill="none" xmlns="http://www.w3.org/2000/svg">
<path d="M0.206185 10.2873C0.0687284 10.1559 -6.42629e-08 10.0048 -7.94465e-08 9.83402C-9.46301e-08 9.66322 0.0687283 9.51213 0.206185 9.38075L9.81443 0.197075C9.95189 0.0656917 10.11 1.62489e-07 10.2887 1.47127e-07C10.4674 1.31764e-07 10.6254 0.0656916 10.7629 0.197075L11.7938 1.18245C11.9313 1.31383 12 1.46492 12 1.63572C12 1.80652 11.9313 1.95761 11.7938 2.08899L3.69072 9.83402L11.7938 17.579C11.9313 17.7104 12 17.8615 12 18.0323C12 18.2031 11.9313 18.3542 11.7938 18.4856L10.7629 19.471C10.6254 19.6023 10.4674 19.668 10.2887 19.668C10.11 19.668 9.95189 19.6023 9.81443 19.471L0.206185 10.2873Z" fill="black"/>
</svg>
