<svg width="58" height="58" viewBox="0 0 58 58" fill="none" xmlns="http://www.w3.org/2000/svg">
<path id="Vector" d="M25.4945 42.0113C25.157 42.0113 24.8758 41.8894 24.6509 41.6457C24.4259 41.402 24.3134 41.1115 24.3134 40.774C24.3134 39.7992 24.6602 38.9556 25.3539 38.2432C26.0475 37.5308 26.9005 37.1746 27.9128 37.1746H38.7109C39.3483 37.1746 39.9013 36.9403 40.37 36.4716C40.8387 36.003 41.073 35.4499 41.073 34.8125C41.073 34.1377 40.8387 33.5659 40.37 33.0972C39.9013 32.6286 39.3483 32.3942 38.7109 32.3942H27.9128C27.8378 32.3942 27.7722 32.3848 27.7159 32.3661C27.6597 32.3474 27.5941 32.338 27.5191 32.338L24.0884 31.2132H18.2957C17.3209 31.2132 16.3835 31.3913 15.4837 31.7475C14.5838 32.1036 13.7965 32.6004 13.1216 33.2378L11.9406 34.4189C11.7156 34.6813 11.4344 34.8125 11.097 34.8125C10.7595 34.8125 10.4783 34.6813 10.2533 34.4189C10.0284 34.1939 9.91591 33.9221 9.91591 33.6034C9.91591 33.2847 10.0284 32.9941 10.2533 32.7317L11.4344 31.5506C12.3342 30.6883 13.3747 30.0134 14.5557 29.526C15.7368 29.0386 16.9834 28.7948 18.2957 28.7948H24.3134C24.3509 28.7948 24.4071 28.8042 24.4821 28.823C24.5571 28.8417 24.6134 28.8511 24.6509 28.8511L28.0815 29.9759H38.7109C40.0232 29.9759 41.148 30.4446 42.0853 31.3819C43.0227 32.3192 43.4913 33.4628 43.4913 34.8125C43.4913 36.1248 43.0227 37.2496 42.0853 38.187C41.148 39.1243 40.0232 39.593 38.7109 39.593H27.9128C27.5753 39.593 27.2848 39.7148 27.0411 39.9585C26.7974 40.2022 26.6755 40.4741 26.6755 40.774C26.6755 41.1115 26.563 41.402 26.3381 41.6457C26.1131 41.8894 25.8319 42.0113 25.4945 42.0113ZM19.1393 48.8164L17.4521 47.1292L19.8704 44.7671C19.9829 44.6546 20.1048 44.5609 20.236 44.4859C20.3672 44.4109 20.5266 44.3734 20.714 44.3734H37.0799L49.7902 33.9689L55.0768 25.4767C54.9643 25.4017 54.8331 25.3361 54.6831 25.2798C54.5332 25.2236 54.4019 25.1955 54.2895 25.1955C53.7645 25.1955 53.2303 25.2798 52.6866 25.4486C52.143 25.6173 51.365 26.2078 50.3526 27.2201L47.9343 29.6384C47.8968 29.6759 47.8593 29.7134 47.8218 29.7509C47.7843 29.7884 47.7468 29.8072 47.7093 29.8072L41.6916 33.4065L40.4544 31.3819L46.3596 27.8388L48.6654 25.5329C49.9402 24.2581 50.99 23.4801 51.8149 23.1989C52.6397 22.9177 53.4646 22.7771 54.2895 22.7771C55.1143 22.7771 55.8454 23.0208 56.4828 23.5083C57.1202 23.9957 57.4764 24.2769 57.5514 24.3519C57.7389 24.5393 57.8513 24.7737 57.8888 25.0549C57.9263 25.3361 57.8701 25.5891 57.7201 25.8141L51.7024 35.4312C51.6649 35.4687 51.6274 35.5156 51.5899 35.5718C51.5524 35.628 51.5149 35.6749 51.4774 35.7124L38.261 46.5105C38.1485 46.623 38.0267 46.698 37.8954 46.7355C37.7642 46.773 37.6236 46.7917 37.4736 46.7917H21.2202L19.1393 48.8164ZM14.6963 57.5898C14.5464 57.5898 14.3964 57.5617 14.2464 57.5055C14.0964 57.4492 13.9652 57.3649 13.8527 57.2524C13.6278 56.9899 13.5153 56.6994 13.5153 56.3807C13.5153 56.062 13.6278 55.7902 13.8527 55.5652L19.0268 50.3911L6.31653 37.6808L2.32348 41.6176C2.09852 41.8801 1.82669 42.0113 1.50799 42.0113C1.1893 42.0113 0.898724 41.8801 0.63627 41.6176C0.411309 41.3927 0.298828 41.1208 0.298828 40.8021C0.298828 40.4834 0.411309 40.1929 0.63627 39.9304L5.47293 35.15C5.69789 34.925 5.96972 34.8125 6.28841 34.8125C6.60711 34.8125 6.89768 34.925 7.16014 35.15L21.5576 49.5475C21.7826 49.7725 21.8951 50.0537 21.8951 50.3911C21.8951 50.7285 21.7826 51.0097 21.5576 51.2347L15.5399 57.2524C15.4275 57.3649 15.2962 57.4492 15.1462 57.5055C14.9963 57.5617 14.8463 57.5898 14.6963 57.5898ZM20.714 14.3973C19.0643 14.3973 17.6489 13.8068 16.4679 12.6258C15.2869 11.4447 14.6963 10.0294 14.6963 8.37964V6.01755C14.6963 4.36784 15.2869 2.95246 16.4679 1.77141C17.6489 0.590366 19.0643 -0.000156403 20.714 -0.000156403C22.3637 -0.000156403 23.7698 0.590366 24.9321 1.77141C26.0943 2.95246 26.6755 4.36784 26.6755 6.01755V8.37964C26.6755 10.0294 26.0943 11.4447 24.9321 12.6258C23.7698 13.8068 22.3637 14.3973 20.714 14.3973ZM20.714 2.41817C19.7017 2.41817 18.8487 2.76499 18.1551 3.45862C17.4615 4.15225 17.1147 5.00523 17.1147 6.01755V8.37964C17.1147 9.39196 17.4615 10.2449 18.1551 10.9386C18.8487 11.6322 19.7017 11.979 20.714 11.979C21.6889 11.979 22.5325 11.6322 23.2448 10.9386C23.9572 10.2449 24.3134 9.39196 24.3134 8.37964V6.01755C24.3134 5.00523 23.9572 4.15225 23.2448 3.45862C22.5325 2.76499 21.6889 2.41817 20.714 2.41817ZM36.2926 26.3765H17.1147C15.09 26.3765 13.4497 25.936 12.1936 25.0549C10.9376 24.1738 10.2908 23.6957 10.2533 23.6207C10.1409 23.5083 10.0565 23.3864 10.0003 23.2552C9.94403 23.124 9.91591 22.9646 9.91591 22.7771V18.6154C9.91591 18.2404 10.0096 17.8749 10.1971 17.5187C10.3846 17.1625 10.647 16.8719 10.9845 16.647L17.6208 12.204C17.9208 12.0165 18.2301 11.9509 18.5488 12.0071C18.8675 12.0634 19.1206 12.2415 19.308 12.5414C19.4955 12.8039 19.5517 13.1038 19.4767 13.4413C19.4018 13.7787 19.233 14.0224 18.9706 14.1724L12.278 18.6154V22.271C12.6529 22.5334 13.2622 22.8896 14.1058 23.3395C14.9494 23.7895 15.9524 24.0144 17.1147 24.0144H36.2926C36.63 24.0144 36.9112 24.1269 37.1362 24.3519C37.3611 24.5768 37.4736 24.858 37.4736 25.1955C37.4736 25.5329 37.3611 25.8141 37.1362 26.0391C36.9112 26.264 36.63 26.3765 36.2926 26.3765ZM28.3627 18.9528L22.345 14.1161C22.195 14.0037 22.0825 13.8724 22.0076 13.7225C21.9326 13.5725 21.8951 13.4038 21.8951 13.2163V11.979H24.3134V12.5977L29.825 17.0406L28.3627 18.9528ZM37.4736 14.3973C35.8239 14.3973 34.4179 13.8068 33.2556 12.6258C32.0933 11.4447 31.5122 10.0294 31.5122 8.37964V6.01755C31.5122 4.36784 32.0933 2.95246 33.2556 1.77141C34.4179 0.590366 35.8239 -0.000156403 37.4736 -0.000156403C39.1233 -0.000156403 40.5387 0.590366 41.7198 1.77141C42.9008 2.95246 43.4913 4.36784 43.4913 6.01755V8.37964C43.4913 10.0294 42.9008 11.4447 41.7198 12.6258C40.5387 13.8068 39.1233 14.3973 37.4736 14.3973ZM37.4736 2.41817C36.4988 2.41817 35.6552 2.76499 34.9428 3.45862C34.2304 4.15225 33.8742 5.00523 33.8742 6.01755V8.37964C33.8742 9.39196 34.2304 10.2449 34.9428 10.9386C35.6552 11.6322 36.4988 11.979 37.4736 11.979C38.4859 11.979 39.3389 11.6322 40.0326 10.9386C40.7262 10.2449 41.073 9.39196 41.073 8.37964V6.01755C41.073 5.00523 40.7262 4.15225 40.0326 3.45862C39.3389 2.76499 38.4859 2.41817 37.4736 2.41817ZM29.825 18.9528L28.3627 17.0406L33.8742 12.5977V11.979H36.2926V13.2163C36.2926 13.4038 36.2551 13.5725 36.1801 13.7225C36.1051 13.8724 35.9926 14.0037 35.8427 14.1161L29.825 18.9528ZM41.073 26.3765C40.773 26.3765 40.5012 26.264 40.2575 26.0391C40.0138 25.8141 39.892 25.5329 39.892 25.1955C39.892 24.858 40.0138 24.5768 40.2575 24.3519C40.5012 24.1269 40.773 24.0144 41.073 24.0144C42.2353 24.0144 43.2382 23.7895 44.0819 23.3395C44.9255 22.8896 45.5347 22.5334 45.9097 22.271V18.6154L39.2171 14.1724C38.9546 14.0224 38.7859 13.7787 38.7109 13.4413C38.6359 13.1038 38.6922 12.8039 38.8796 12.5414C39.0671 12.2415 39.3202 12.0634 39.6389 12.0071C39.9576 11.9509 40.2669 12.0165 40.5668 12.204L47.2032 16.647C47.5406 16.8719 47.8031 17.1625 47.9905 17.5187C48.178 17.8749 48.2717 18.2404 48.2717 18.6154V22.7771C48.2717 22.9646 48.2436 23.124 48.1874 23.2552C48.1311 23.3864 48.0468 23.5083 47.9343 23.6207C47.8968 23.6957 47.25 24.1738 45.994 25.0549C44.738 25.936 43.0976 26.3765 41.073 26.3765ZM29.0938 21.5961C28.7564 21.5961 28.4752 21.4836 28.2502 21.2587C28.0253 21.0337 27.9128 20.7525 27.9128 20.4151V17.9967C27.9128 17.6593 28.0253 17.3781 28.2502 17.1531C28.4752 16.9282 28.7564 16.8157 29.0938 16.8157C29.4313 16.8157 29.7125 16.9282 29.9374 17.1531C30.1624 17.3781 30.2749 17.6593 30.2749 17.9967V20.4151C30.2749 20.7525 30.1624 21.0337 29.9374 21.2587C29.7125 21.4836 29.4313 21.5961 29.0938 21.5961Z" fill="#0071B9"/>
</svg>
