<svg width="58" height="45" viewBox="0 0 58 45" fill="none" xmlns="http://www.w3.org/2000/svg">
<path id="Vector" d="M56.5676 10.8826C57.4549 12.5829 57.4734 14.3018 56.6231 16.0392C55.7728 17.7765 54.6451 18.867 53.2402 19.3106L13.9766 36.9429C13.385 37.1647 12.9044 37.0168 12.5347 36.4993L0.666879 20.7522C0.297165 20.3086 0.27868 19.8466 0.611422 19.366C0.944165 18.8855 1.40631 18.7191 1.99785 18.867L13.9766 22.1938L23.2934 18.0907L15.3076 8.88644C14.0505 7.40784 13.6438 5.79987 14.0875 4.06252C14.5312 2.32516 15.7142 1.04987 17.6368 0.236641C18.5241 -0.0590782 19.5038 -0.0775604 20.576 0.181194C21.6481 0.439949 22.517 0.938976 23.1825 1.67828L34.163 13.4331L48.0272 8.22108C49.9498 7.55571 51.6504 7.46329 53.1293 7.94384C54.6082 8.42439 55.7543 9.40395 56.5676 10.8826ZM52.3529 17.0927C53.0923 16.797 53.7578 16.1685 54.3493 15.2075C54.9409 14.2464 54.9779 13.1374 54.4603 11.8806C54.0905 11.1413 53.462 10.6053 52.5747 10.2726C51.6874 9.93995 50.4674 9.9954 48.9146 10.439L34.2739 15.9837C33.7563 16.2055 33.3126 16.1316 32.9429 15.7619L21.5187 3.3417C20.5575 2.38061 19.5223 2.12185 18.4132 2.56543C17.5258 2.93509 16.9528 3.47108 16.694 4.17341C16.4352 4.87574 16.3797 5.48567 16.5276 6.00318C16.6755 6.52069 16.8604 6.96427 17.0822 7.33392L26.1771 17.758C26.4729 18.1277 26.5653 18.4973 26.4544 18.867C26.3435 19.2366 26.1032 19.4954 25.7335 19.6433L14.5312 24.6335C14.3093 24.7075 14.0505 24.7075 13.7548 24.6335L4.7707 22.0829L13.8657 34.2814L52.3529 17.0927ZM1.66511 44.8164V42.4876H56.0131V44.8164H1.66511Z" fill="#0071B9"/>
</svg>
