<svg width="22" height="15" viewBox="0 0 22 15" fill="none" xmlns="http://www.w3.org/2000/svg">
<path d="M21.3563 2.38281C21.825 4.02344 21.825 7.53906 21.825 7.53906C21.825 7.53906 21.825 11.0156 21.3563 12.6953C21.1219 13.6328 20.3797 14.3359 19.4813 14.5703C17.8016 15 11.1609 15 11.1609 15C11.1609 15 4.48125 15 2.80156 14.5703C1.90313 14.3359 1.16094 13.6328 0.926563 12.6953C0.457813 11.0156 0.457813 7.53906 0.457813 7.53906C0.457813 7.53906 0.457813 4.02344 0.926563 2.38281C1.16094 1.44531 1.90313 0.703125 2.80156 0.46875C4.48125 0 11.1609 0 11.1609 0C11.1609 0 17.8016 0 19.4813 0.46875C20.3797 0.703125 21.1219 1.44531 21.3563 2.38281ZM8.97344 10.7031L14.5203 7.53906L8.97344 4.375V10.7031Z" fill="white"/>
</svg>
