<svg width="20" height="12" viewBox="0 0 20 12" fill="none" xmlns="http://www.w3.org/2000/svg">
<path d="M18.6328 -9.53674e-07H12.4609C12.3828 -9.53674e-07 12.3145 0.0253515 12.2559 0.0760555C12.1973 0.12676 12.168 0.185915 12.168 0.253521C12.168 0.321126 12.1973 0.380281 12.2559 0.430985C12.3145 0.481689 12.3828 0.507042 12.4609 0.507042H18.6328C18.8411 0.507042 19.0234 0.574647 19.1797 0.709859C19.3359 0.84507 19.4141 1.00282 19.4141 1.1831V1.2169L11.9141 5.9831C11.875 6.00563 11.8424 6.02535 11.8164 6.04225C11.7904 6.05915 11.7643 6.07324 11.7383 6.08451C11.7383 6.09577 11.735 6.10141 11.7285 6.10141C11.722 6.10141 11.7122 6.10704 11.6992 6.11831C11.6992 6.10704 11.6927 6.10141 11.6797 6.10141C11.6667 6.10141 11.6602 6.09577 11.6602 6.08451C11.6341 6.07324 11.6081 6.05915 11.582 6.04225C11.556 6.02535 11.5299 6.00563 11.5039 5.9831L10.2539 5.18873L4.21875 1.35211V1.1831C4.21875 1.00282 4.29362 0.84507 4.44336 0.709859C4.5931 0.574647 4.77865 0.507042 5 0.507042H11.0938C11.1849 0.507042 11.2565 0.481689 11.3086 0.430985C11.3607 0.380281 11.3867 0.321126 11.3867 0.253521C11.3867 0.185915 11.3607 0.12676 11.3086 0.0760555C11.2565 0.0253515 11.1849 -9.53674e-07 11.0938 -9.53674e-07H5C4.6224 -9.53674e-07 4.30013 0.115493 4.0332 0.346478C3.76628 0.577464 3.63281 0.856338 3.63281 1.1831V1.99437H2.92969C2.55208 1.99437 2.23307 2.10986 1.97266 2.34084C1.71224 2.57183 1.58203 2.84507 1.58203 3.16056V4.37746H0.3125C0.234375 4.37746 0.166016 4.4 0.107422 4.44507C0.0488281 4.49014 0.0195312 4.55211 0.0195312 4.63099C0.0195312 4.69859 0.0488281 4.75775 0.107422 4.80845C0.166016 4.85915 0.234375 4.88451 0.3125 4.88451H1.58203V6.69296H0.292969C0.214844 6.69296 0.146484 6.71831 0.0878906 6.76901C0.0292969 6.81972 0 6.87887 0 6.94648C0 7.01408 0.0292969 7.07324 0.0878906 7.12394C0.146484 7.17465 0.214844 7.2 0.292969 7.2H1.58203V9.34648H0.292969C0.214844 9.34648 0.146484 9.37183 0.0878906 9.42254C0.0292969 9.47324 0 9.53239 0 9.6C0 9.66761 0.0292969 9.72676 0.0878906 9.77746C0.146484 9.82817 0.214844 9.85352 0.292969 9.85352H1.58203V10.8338C1.58203 11.1493 1.71224 11.4225 1.97266 11.6535C2.23307 11.8845 2.55208 12 2.92969 12H7.51953C7.59766 12 7.66602 11.9746 7.72461 11.9239C7.7832 11.8732 7.8125 11.8141 7.8125 11.7465C7.8125 11.6789 7.7832 11.6197 7.72461 11.569C7.66602 11.5183 7.59766 11.493 7.51953 11.493H2.92969L5.56641 10.0056H15.1758L17.7734 11.4592C17.7474 11.4704 17.7148 11.4789 17.6758 11.4845C17.6367 11.4901 17.6042 11.493 17.5781 11.493H8.86719C8.78906 11.493 8.7207 11.5183 8.66211 11.569C8.60352 11.6197 8.57422 11.6789 8.57422 11.7465C8.57422 11.8141 8.60352 11.8732 8.66211 11.9239C8.7207 11.9746 8.78906 12 8.86719 12H17.5781C17.9427 12 18.2585 11.8845 18.5254 11.6535C18.7923 11.4225 18.9258 11.1493 18.9258 10.8338V9.98873C19.2383 9.93239 19.4954 9.79437 19.6973 9.57465C19.8991 9.35493 20 9.10423 20 8.82254V1.1831C20 0.856338 19.8665 0.577464 19.5996 0.346478C19.3327 0.115493 19.0104 -9.53674e-07 18.6328 -9.53674e-07ZM4.21875 1.97746L9.57031 5.39155L4.21875 8.3831V1.97746ZM2.16797 3.16056C2.16797 2.98028 2.24284 2.82535 2.39258 2.69577C2.54232 2.5662 2.72135 2.50141 2.92969 2.50141H3.63281V6.69296H2.16797V3.16056ZM2.32422 11.2225C2.27214 11.1662 2.23307 11.1042 2.20703 11.0366C2.18099 10.969 2.16797 10.9014 2.16797 10.8338V7.2H3.63281V8.82254C3.63281 9.09296 3.72396 9.33239 3.90625 9.54084C4.08854 9.7493 4.31641 9.88732 4.58984 9.95493L2.32422 11.2225ZM18.3398 10.8338C18.3398 10.8789 18.3333 10.9268 18.3203 10.9775C18.3073 11.0282 18.2878 11.0817 18.2617 11.138L16.25 10.0056H18.3398V10.8338ZM18.6328 9.49859H5C4.81771 9.49859 4.65495 9.44789 4.51172 9.34648C4.36849 9.24507 4.27734 9.12113 4.23828 8.97465L10.0781 5.71268L11.1523 6.38873C11.1784 6.41127 11.2044 6.43099 11.2305 6.44789C11.2565 6.46479 11.2826 6.47887 11.3086 6.49014C11.3737 6.53521 11.4355 6.57465 11.4941 6.60845C11.5527 6.64225 11.6211 6.65915 11.6992 6.65915C11.7773 6.65915 11.8457 6.64225 11.9043 6.60845C11.9629 6.57465 12.0312 6.53521 12.1094 6.49014C12.1224 6.47887 12.1419 6.46479 12.168 6.44789C12.194 6.43099 12.2201 6.41127 12.2461 6.38873L13.457 5.62817L19.3945 8.95775C19.3685 9.11549 19.2806 9.24507 19.1309 9.34648C18.9811 9.44789 18.8151 9.49859 18.6328 9.49859ZM19.4141 8.3493L13.9648 5.30704L19.4141 1.84225V8.3493Z" fill="white"/>
</svg>
