<svg width="20" height="13" viewBox="0 0 20 13" fill="none" xmlns="http://www.w3.org/2000/svg">
<path d="M9.53908 0.821864C9.67268 0.686688 9.82632 0.6191 10 0.6191C10.1737 0.6191 10.3273 0.686688 10.4609 0.821864L19.7996 10.2706C19.9332 10.4058 20 10.5613 20 10.737C20 10.9127 19.9332 11.0682 19.7996 11.2033L18.7976 12.2172C18.664 12.3523 18.5104 12.4199 18.3367 12.4199C18.163 12.4199 18.0094 12.3523 17.8758 12.2172L10 4.24856L2.12425 12.2172C1.99065 12.3523 1.83701 12.4199 1.66333 12.4199C1.48965 12.4199 1.33601 12.3523 1.20241 12.2172L0.200401 11.2033C0.066801 11.0682 -6.69941e-08 10.9127 -7.48051e-08 10.737C-8.2616e-08 10.5613 0.066801 10.4058 0.200401 10.2706L9.53908 0.821864Z" fill="white"/>
</svg>
