<svg width="59" height="56" viewBox="0 0 59 56" fill="none" xmlns="http://www.w3.org/2000/svg">
<path id="Vector" d="M52.4699 17.9971C50.8199 17.9971 49.4137 17.4066 48.2512 16.2255C47.0887 15.0445 46.5074 13.6291 46.5074 11.9794C46.5074 10.3297 47.0887 8.92366 48.2512 7.76136C49.4137 6.59906 50.8199 6.01791 52.4699 6.01791C54.1199 6.01791 55.5355 6.59906 56.7168 7.76136C57.898 8.92366 58.4887 10.3297 58.4887 11.9794C58.4887 13.6291 57.898 15.0445 56.7168 16.2255C55.5355 17.4066 54.1199 17.9971 52.4699 17.9971ZM52.4699 8.38C51.4949 8.38 50.6512 8.73619 49.9387 9.44856C49.2262 10.1609 48.8699 11.0045 48.8699 11.9794C48.8699 12.9917 49.2262 13.8447 49.9387 14.5383C50.6512 15.2319 51.4949 15.5788 52.4699 15.5788C53.4824 15.5788 54.3355 15.2319 55.0293 14.5383C55.723 13.8447 56.0699 12.9917 56.0699 11.9794C56.0699 11.0045 55.723 10.1609 55.0293 9.44856C54.3355 8.73619 53.4824 8.38 52.4699 8.38ZM57.3074 42.0117C56.9699 42.0117 56.6793 41.8898 56.4355 41.6461C56.1918 41.4024 56.0699 41.1118 56.0699 40.7744V25.1958C56.0699 24.5209 55.8355 23.9492 55.3668 23.4805C54.898 23.0118 54.3449 22.7775 53.7074 22.7775H52.4699C52.0574 22.7775 51.6449 22.9275 51.2324 23.2274C50.8199 23.5274 50.3512 24.0335 49.8262 24.7459C49.2637 25.4958 48.3449 26.6581 47.0699 28.2328C45.7949 29.8075 45.1199 30.6511 45.0449 30.7636C44.8949 30.9136 44.7449 31.0261 44.5949 31.1011C44.4449 31.176 44.2762 31.2135 44.0887 31.2135H38.0699C37.7324 31.2135 37.4512 31.326 37.2262 31.551C37.0012 31.7759 36.8887 32.0571 36.8887 32.3946V33.5756H47.0699L50.3324 29.3014C50.5199 29.0014 50.7824 28.8327 51.1199 28.7952C51.4574 28.7577 51.7574 28.8327 52.0199 29.0202C52.2824 29.2451 52.4324 29.517 52.4699 29.8356C52.5074 30.1543 52.4324 30.4449 52.2449 30.7074L48.6449 35.4878C48.5324 35.6378 48.3918 35.7596 48.223 35.8534C48.0543 35.9471 47.8762 35.994 47.6887 35.994H35.7074C35.3699 35.994 35.0793 35.8815 34.8355 35.6565C34.5918 35.4316 34.4699 35.1504 34.4699 34.8129V32.3946C34.4699 31.4197 34.8262 30.5761 35.5387 29.8638C36.2512 29.1514 37.0949 28.7952 38.0699 28.7952H43.5262C43.9762 28.1953 44.7074 27.2767 45.7199 26.0394C46.7324 24.8021 47.4637 23.8836 47.9137 23.2837C48.4387 22.6088 49.0668 21.962 49.798 21.3434C50.5293 20.7247 51.4199 20.4154 52.4699 20.4154H53.7074C55.0199 20.4154 56.1449 20.8841 57.0824 21.8214C58.0199 22.7588 58.4887 23.8836 58.4887 25.1958V40.7744C58.4887 41.1118 58.3762 41.4024 58.1512 41.6461C57.9262 41.8898 57.6449 42.0117 57.3074 42.0117ZM6.90742 17.9971C5.25742 17.9971 3.8418 17.4066 2.66055 16.2255C1.4793 15.0445 0.888672 13.6291 0.888672 11.9794C0.888672 10.3297 1.4793 8.92366 2.66055 7.76136C3.8418 6.59906 5.25742 6.01791 6.90742 6.01791C8.55742 6.01791 9.96367 6.59906 11.1262 7.76136C12.2887 8.92366 12.8699 10.3297 12.8699 11.9794C12.8699 13.6291 12.2887 15.0445 11.1262 16.2255C9.96367 17.4066 8.55742 17.9971 6.90742 17.9971ZM6.90742 8.38C5.89492 8.38 5.0418 8.73619 4.34805 9.44856C3.6543 10.1609 3.30742 11.0045 3.30742 11.9794C3.30742 12.9917 3.6543 13.8447 4.34805 14.5383C5.0418 15.2319 5.89492 15.5788 6.90742 15.5788C7.88242 15.5788 8.72617 15.2319 9.43867 14.5383C10.1512 13.8447 10.5074 12.9917 10.5074 11.9794C10.5074 11.0045 10.1512 10.1609 9.43867 9.44856C8.72617 8.73619 7.88242 8.38 6.90742 8.38ZM2.06992 42.0117C1.76992 42.0117 1.49805 41.8898 1.2543 41.6461C1.01055 41.4024 0.888672 41.1118 0.888672 40.7744V25.1958C0.888672 23.8836 1.35742 22.7588 2.29492 21.8214C3.23242 20.8841 4.35742 20.4154 5.66992 20.4154H6.90742C7.95742 20.4154 8.84805 20.7247 9.5793 21.3434C10.3105 21.962 10.9387 22.6088 11.4637 23.2837C11.9137 23.8836 12.6449 24.8021 13.6574 26.0394C14.6699 27.2767 15.4012 28.1953 15.8512 28.7952H21.3074C22.2824 28.7952 23.1262 29.1514 23.8387 29.8638C24.5512 30.5761 24.9074 31.4197 24.9074 32.3946V34.8129C24.9074 35.1504 24.7855 35.4316 24.5418 35.6565C24.298 35.8815 24.0074 35.994 23.6699 35.994H11.6887C11.5012 35.994 11.323 35.9565 11.1543 35.8815C10.9855 35.8065 10.8449 35.6753 10.7324 35.4878L7.13242 30.7074C6.94492 30.4449 6.86992 30.1543 6.90742 29.8356C6.94492 29.517 7.09492 29.2451 7.35742 29.0202C7.61992 28.8327 7.91992 28.7577 8.25742 28.7952C8.59492 28.8327 8.85742 29.0014 9.04492 29.3014L12.3074 33.5756H22.4887V32.3946C22.4887 32.0571 22.3668 31.7759 22.123 31.551C21.8793 31.326 21.6074 31.2135 21.3074 31.2135H15.2887C15.1012 31.2135 14.9324 31.176 14.7824 31.1011C14.6324 31.0261 14.4824 30.9136 14.3324 30.7636C14.2574 30.6511 13.5824 29.8075 12.3074 28.2328C11.0324 26.6581 10.1137 25.4958 9.55117 24.7459C9.02617 24.0335 8.55742 23.5274 8.14492 23.2274C7.73242 22.9275 7.31992 22.7775 6.90742 22.7775H5.66992C5.03242 22.7775 4.4793 23.0118 4.01055 23.4805C3.5418 23.9492 3.30742 24.5209 3.30742 25.1958V40.7744C3.30742 41.1118 3.18555 41.4024 2.9418 41.6461C2.69805 41.8898 2.40742 42.0117 2.06992 42.0117ZM29.6887 9.61729C28.3762 9.61729 27.2512 9.14862 26.3137 8.21128C25.3762 7.27394 24.9074 6.13039 24.9074 4.78062C24.9074 3.46835 25.3762 2.34355 26.3137 1.40621C27.2512 0.468872 28.3762 0.000205994 29.6887 0.000205994C31.0012 0.000205994 32.1262 0.468872 33.0637 1.40621C34.0012 2.34355 34.4699 3.46835 34.4699 4.78062C34.4699 6.13039 34.0012 7.27394 33.0637 8.21128C32.1262 9.14862 31.0012 9.61729 29.6887 9.61729ZM29.6887 2.41853C29.0137 2.41853 28.4418 2.65287 27.973 3.12154C27.5043 3.59021 27.2699 4.14323 27.2699 4.78062C27.2699 5.45551 27.5043 6.02728 27.973 6.49595C28.4418 6.96462 29.0137 7.19896 29.6887 7.19896C30.3637 7.19896 30.9355 6.96462 31.4043 6.49595C31.873 6.02728 32.1074 5.45551 32.1074 4.78062C32.1074 4.14323 31.873 3.59021 31.4043 3.12154C30.9355 2.65287 30.3637 2.41853 29.6887 2.41853ZM36.8887 21.5965C36.5512 21.5965 36.2699 21.4746 36.0449 21.2309C35.8199 20.9872 35.7074 20.7154 35.7074 20.4154V17.9971C35.7074 17.5097 35.6137 17.0504 35.4262 16.6192C35.2387 16.188 34.9762 15.8037 34.6387 15.4663C34.3012 15.1288 33.9074 14.8664 33.4574 14.6789C33.0074 14.4914 32.5574 14.3977 32.1074 14.3977H27.2699C26.8199 14.3977 26.3699 14.4914 25.9199 14.6789C25.4699 14.8664 25.0762 15.1288 24.7387 15.4663C24.4012 15.8037 24.1387 16.188 23.9512 16.6192C23.7637 17.0504 23.6699 17.5097 23.6699 17.9971V20.4154C23.6699 20.7154 23.5574 20.9872 23.3324 21.2309C23.1074 21.4746 22.8262 21.5965 22.4887 21.5965C22.1512 21.5965 21.8699 21.4746 21.6449 21.2309C21.4199 20.9872 21.3074 20.7154 21.3074 20.4154V17.9971C21.3074 17.2097 21.4574 16.4505 21.7574 15.7193C22.0574 14.9882 22.4887 14.3415 23.0512 13.7791C23.6137 13.1792 24.2605 12.7292 24.9918 12.4293C25.723 12.1293 26.4824 11.9794 27.2699 11.9794H32.1074C32.8949 11.9794 33.6543 12.1293 34.3855 12.4293C35.1168 12.7292 35.7637 13.1792 36.3262 13.7791C36.8887 14.3415 37.3199 14.9882 37.6199 15.7193C37.9199 16.4505 38.0699 17.2097 38.0699 17.9971V20.4154C38.0699 20.7154 37.9574 20.9872 37.7324 21.2309C37.5074 21.4746 37.2262 21.5965 36.8887 21.5965ZM28.5074 39.5933H30.8699V42.0117H28.5074V39.5933ZM23.6699 39.5933H26.0887V42.0117H23.6699V39.5933ZM33.2887 39.5933H35.7074V42.0117H33.2887V39.5933ZM54.8887 50.3915H4.48867C4.15117 50.3915 3.86992 50.279 3.64492 50.054C3.41992 49.8291 3.30742 49.5479 3.30742 49.2104V46.7921C3.30742 46.6796 3.3168 46.5765 3.33555 46.4828C3.3543 46.389 3.38242 46.2859 3.41992 46.1734L8.25742 37.7936C8.40742 37.4937 8.6418 37.3062 8.96055 37.2312C9.2793 37.1563 9.58867 37.1937 9.88867 37.3437C10.1887 37.5312 10.3762 37.7843 10.4512 38.103C10.5262 38.4217 10.4887 38.7122 10.3387 38.9747L5.66992 47.1295V47.9731H53.7074V47.0733L47.0137 34.8692C46.8637 34.5692 46.8355 34.2599 46.9293 33.9412C47.023 33.6225 47.2199 33.3882 47.5199 33.2382C47.7824 33.0882 48.073 33.0601 48.3918 33.1538C48.7105 33.2476 48.9637 33.4444 49.1512 33.7443L55.9574 46.2297C55.9949 46.3047 56.023 46.389 56.0418 46.4828C56.0605 46.5765 56.0699 46.6796 56.0699 46.7921V49.2104C56.0699 49.5479 55.9574 49.8291 55.7324 50.054C55.5074 50.279 55.2262 50.3915 54.8887 50.3915ZM45.0449 29.9762C44.8199 29.9762 44.6043 29.9106 44.398 29.7794C44.1918 29.6482 44.0512 29.4701 43.9762 29.2451L39.7574 21.5965H36.8887C36.5512 21.5965 36.2699 21.484 36.0449 21.259C35.8199 21.0341 35.7074 20.7528 35.7074 20.4154C35.7074 20.078 35.8199 19.7874 36.0449 19.5437C36.2699 19.3 36.5512 19.1781 36.8887 19.1781H40.4887C40.7137 19.1781 40.9199 19.2344 41.1074 19.3468C41.2949 19.4593 41.4449 19.6093 41.5574 19.7968L46.1137 28.2328C46.1887 28.3078 46.2355 28.3922 46.2543 28.4859C46.273 28.5796 46.2824 28.6827 46.2824 28.7952C46.2824 29.1326 46.1605 29.4138 45.9168 29.6388C45.673 29.8638 45.3824 29.9762 45.0449 29.9762ZM14.2762 29.9762C14.2012 29.9762 14.1168 29.9669 14.023 29.9481C13.9293 29.9294 13.8262 29.9013 13.7137 29.8638C13.4512 29.6763 13.273 29.4326 13.1793 29.1326C13.0855 28.8327 13.1137 28.5328 13.2637 28.2328L17.8199 19.7968C17.9324 19.6093 18.0824 19.4593 18.2699 19.3468C18.4574 19.2344 18.6637 19.1781 18.8887 19.1781H32.1074C32.4449 19.1781 32.7262 19.3 32.9512 19.5437C33.1762 19.7874 33.2887 20.078 33.2887 20.4154C33.2887 20.7154 33.1762 20.9872 32.9512 21.2309C32.7262 21.4746 32.4449 21.5965 32.1074 21.5965H19.6199L15.3449 29.3576C15.2324 29.5826 15.0824 29.7419 14.8949 29.8356C14.7074 29.9294 14.5012 29.9762 14.2762 29.9762ZM48.8699 55.1719C48.5324 55.1719 48.2512 55.0594 48.0262 54.8344C47.8012 54.6095 47.6887 54.3283 47.6887 53.9908V49.2104C47.6887 48.873 47.8012 48.5824 48.0262 48.3387C48.2512 48.095 48.5324 47.9731 48.8699 47.9731C49.2074 47.9731 49.498 48.095 49.7418 48.3387C49.9855 48.5824 50.1074 48.873 50.1074 49.2104V53.9908C50.1074 54.3283 49.9855 54.6095 49.7418 54.8344C49.498 55.0594 49.2074 55.1719 48.8699 55.1719ZM10.5074 55.1719C10.1699 55.1719 9.8793 55.0594 9.63555 54.8344C9.3918 54.6095 9.26992 54.3283 9.26992 53.9908V49.2104C9.26992 48.873 9.3918 48.5824 9.63555 48.3387C9.8793 48.095 10.1699 47.9731 10.5074 47.9731C10.8074 47.9731 11.0793 48.095 11.323 48.3387C11.5668 48.5824 11.6887 48.873 11.6887 49.2104V53.9908C11.6887 54.3283 11.5668 54.6095 11.323 54.8344C11.0793 55.0594 10.8074 55.1719 10.5074 55.1719Z" fill="#0071B9"/>
</svg>
