<svg width="35" height="35" viewBox="0 0 35 35" fill="none" xmlns="http://www.w3.org/2000/svg">
<path d="M21.6243 21.6243C21.6243 21.6243 21.9092 21.3395 22.4788 20.7699C23.0485 20.2002 23.3333 19.1102 23.3333 17.5C23.3333 15.8898 22.7637 14.515 21.6243 13.3757C20.485 12.2363 19.1102 11.6667 17.5 11.6667C15.8898 11.6667 14.515 12.2363 13.3757 13.3757C12.2363 14.515 11.6667 15.8898 11.6667 17.5C11.6667 19.1102 12.2363 20.485 13.3757 21.6243C14.515 22.7637 15.8898 23.3333 17.5 23.3333C19.1102 23.3333 20.485 22.7637 21.6243 21.6243ZM23.8574 11.1426C23.8574 11.1426 24.2942 11.5793 25.1676 12.4528C26.0411 13.3263 26.4779 15.0087 26.4779 17.5C26.4779 19.9913 25.6044 22.1105 23.8574 23.8574C22.1105 25.6044 19.9913 26.4779 17.5 26.4779C15.0087 26.4779 12.8895 25.6044 11.1426 23.8574C9.39562 22.1105 8.52214 19.9913 8.52214 17.5C8.52214 15.0087 9.39562 12.8895 11.1426 11.1426C12.8895 9.39562 15.0087 8.52213 17.5 8.52213C19.9913 8.52213 22.1105 9.39562 23.8574 11.1426ZM28.3236 6.67643C28.3236 6.67643 28.4261 6.77897 28.6312 6.98405C28.8363 7.18913 28.9388 7.58029 28.9388 8.15755C28.9388 8.73481 28.7337 9.22852 28.3236 9.63867C27.9134 10.0488 27.4197 10.2539 26.8424 10.2539C26.2652 10.2539 25.7715 10.0488 25.3613 9.63867C24.9512 9.22852 24.7461 8.73481 24.7461 8.15755C24.7461 7.58029 24.9512 7.08659 25.3613 6.67643C25.7715 6.26628 26.2652 6.0612 26.8424 6.0612C27.4197 6.0612 27.9134 6.26628 28.3236 6.67643ZM19.2432 3.13314C19.2432 3.13314 18.9792 3.13504 18.4513 3.13883C17.9234 3.14263 17.6063 3.14453 17.5 3.14453C17.3937 3.14453 16.8126 3.14073 15.7568 3.13314C14.7011 3.12554 13.8997 3.12554 13.3529 3.13314C12.806 3.14073 12.073 3.16352 11.154 3.2015C10.2349 3.23947 9.45258 3.31543 8.80697 3.42936C8.16135 3.54329 7.61827 3.68381 7.17773 3.85091C6.41819 4.15473 5.74978 4.59527 5.17253 5.17253C4.59527 5.74978 4.15473 6.41818 3.85091 7.17773C3.68381 7.61827 3.54329 8.16135 3.42936 8.80696C3.31543 9.45258 3.23948 10.2349 3.2015 11.154C3.16352 12.073 3.14073 12.806 3.13314 13.3529C3.12554 13.8997 3.12554 14.7011 3.13314 15.7568C3.14073 16.8126 3.14453 17.3937 3.14453 17.5C3.14453 17.6063 3.14073 18.1874 3.13314 19.2432C3.12554 20.2989 3.12554 21.1003 3.13314 21.6471C3.14073 22.194 3.16352 22.927 3.2015 23.846C3.23948 24.7651 3.31543 25.5474 3.42936 26.193C3.54329 26.8386 3.68381 27.3817 3.85091 27.8223C4.15473 28.5818 4.59527 29.2502 5.17253 29.8275C5.74978 30.4047 6.41819 30.8453 7.17773 31.1491C7.61827 31.3162 8.16135 31.4567 8.80697 31.5706C9.45258 31.6846 10.2349 31.7605 11.154 31.7985C12.073 31.8365 12.806 31.8593 13.3529 31.8669C13.8997 31.8745 14.7011 31.8745 15.7568 31.8669C16.8126 31.8593 17.3937 31.8555 17.5 31.8555C17.6063 31.8555 18.1874 31.8593 19.2432 31.8669C20.2989 31.8745 21.1003 31.8745 21.6471 31.8669C22.194 31.8593 22.927 31.8365 23.846 31.7985C24.7651 31.7605 25.5474 31.6846 26.193 31.5706C26.8387 31.4567 27.3817 31.3162 27.8223 31.1491C28.5818 30.8453 29.2502 30.4047 29.8275 29.8275C30.4047 29.2502 30.8453 28.5818 31.1491 27.8223C31.3162 27.3817 31.4567 26.8386 31.5706 26.193C31.6846 25.5474 31.7605 24.7651 31.7985 23.846C31.8365 22.927 31.8593 22.194 31.8669 21.6471C31.8745 21.1003 31.8745 20.2989 31.8669 19.2432C31.8593 18.1874 31.8555 17.6063 31.8555 17.5C31.8555 17.3937 31.8593 16.8126 31.8669 15.7568C31.8745 14.7011 31.8745 13.8997 31.8669 13.3529C31.8593 12.806 31.8365 12.073 31.7985 11.154C31.7605 10.2349 31.6846 9.45258 31.5706 8.80696C31.4567 8.16135 31.3162 7.61827 31.1491 7.17773C30.8453 6.41818 30.4047 5.74978 29.8275 5.17253C29.2502 4.59527 28.5818 4.15473 27.8223 3.85091C27.3817 3.68381 26.8387 3.54329 26.193 3.42936C25.5474 3.31543 24.7651 3.23947 23.846 3.2015C22.927 3.16352 22.194 3.14073 21.6471 3.13314C21.1003 3.12554 20.2989 3.12554 19.2432 3.13314ZM34.8861 10.2767C34.962 11.6135 35 14.0213 35 17.5C35 20.9787 34.962 23.3865 34.8861 24.7233C34.7342 27.883 33.7923 30.3288 32.0605 32.0605C30.3288 33.7923 27.883 34.7342 24.7233 34.8861C23.3865 34.962 20.9787 35 17.5 35C14.0213 35 11.6135 34.962 10.2767 34.8861C7.11697 34.7342 4.67122 33.7923 2.93945 32.0605C1.20768 30.3288 0.265842 27.883 0.113932 24.7233C0.0379774 23.3865 0 20.9787 0 17.5C0 14.0213 0.0379774 11.6135 0.113932 10.2767C0.265842 7.11697 1.20768 4.67122 2.93945 2.93945C4.67122 1.20768 7.11697 0.265842 10.2767 0.11393C11.6135 0.0379753 14.0213 0 17.5 0C20.9787 0 23.3865 0.0379753 24.7233 0.11393C27.883 0.265842 30.3288 1.20768 32.0605 2.93945C33.7923 4.67122 34.7342 7.11697 34.8861 10.2767Z" fill="white"/>
</svg>
