<svg width="18" height="18" viewBox="0 0 18 18" fill="none" xmlns="http://www.w3.org/2000/svg">
<path d="M4.31719 18H0.684376V6.32031H4.31719V18ZM2.48125 4.75781C1.34844 4.75781 0.410938 3.78125 0.410938 2.60938C0.410938 1.47656 1.34844 0.539062 2.48125 0.539062C3.65313 0.539062 4.59063 1.47656 4.59063 2.60938C4.59063 3.78125 3.65313 4.75781 2.48125 4.75781ZM17.8719 18H14.2781V12.3359C14.2781 10.9688 14.2391 9.25 12.3641 9.25C10.4891 9.25 10.2156 10.6953 10.2156 12.2188V18H6.58281V6.32031H10.0594V7.92188H10.0984C10.6063 7.02344 11.7781 6.04688 13.5359 6.04688C17.2078 6.04688 17.9109 8.46875 17.9109 11.5938V18H17.8719Z" fill="white"/>
</svg>
