<svg width="58" height="43" viewBox="0 0 58 43" fill="none" xmlns="http://www.w3.org/2000/svg">
<path id="Vector" d="M45.3937 6.4117C44.4187 5.92428 43.2281 5.63371 41.8219 5.53997C40.4156 5.44624 39.675 5.39938 39.6 5.39938C39.375 5.39938 39.1781 5.48373 39.0094 5.65245C38.8406 5.82118 38.7562 6.01802 38.7562 6.24298C38.7562 6.50543 38.8406 6.71165 39.0094 6.86162C39.1781 7.0116 39.375 7.08658 39.6 7.08658C40.0875 7.08658 40.8844 7.14282 41.9906 7.2553C43.0969 7.36778 43.9875 7.59274 44.6625 7.93019C44.7 7.96768 44.7562 7.9958 44.8312 8.01455C44.9062 8.03329 44.9812 8.04267 45.0562 8.04267C45.2062 8.04267 45.3469 7.9958 45.4781 7.90207C45.6094 7.80833 45.7125 7.68648 45.7875 7.5365C45.9 7.34904 45.9187 7.14282 45.8438 6.91786C45.7687 6.6929 45.6187 6.52418 45.3937 6.4117ZM56.7562 31.5511H51.6375C51.825 31.2886 51.9656 30.9981 52.0594 30.6794C52.1531 30.3607 52.2 30.0326 52.2 29.6952V21.8215C52.2 21.0342 51.9562 20.3218 51.4688 19.6844C50.9812 19.047 50.3625 18.6346 49.6125 18.4471L46.575 17.5473C46.35 17.5098 46.1812 17.3973 46.0687 17.2098C45.9562 17.0224 45.9 16.8349 45.9 16.6474V15.9163C46.0125 15.8413 46.1437 15.7476 46.2937 15.6351C46.4437 15.5226 46.575 15.3914 46.6875 15.2414C47.2875 14.679 47.7562 14.0041 48.0938 13.2168C48.4312 12.4294 48.6 11.6233 48.6 10.7984V9.16747L48.9375 8.49259C49.125 8.11765 49.2656 7.73335 49.3594 7.33966C49.4531 6.94598 49.5 6.54293 49.5 6.1305V1.74376C49.5 1.5188 49.4156 1.32196 49.2469 1.15324C49.0781 0.984516 48.8812 0.900158 48.6562 0.900158H40.5C39.0375 0.900158 37.7812 1.42506 36.7313 2.47488C35.6812 3.5247 35.1562 4.78073 35.1562 6.24298V6.29922C35.1562 6.67415 35.2031 7.03034 35.2969 7.36778C35.3906 7.70522 35.5125 8.02392 35.6625 8.32387L36.0562 9.16747V10.5735C36.0562 11.6608 36.3094 12.6637 36.8156 13.5823C37.3219 14.5009 37.9688 15.2602 38.7562 15.8601V16.6474C38.7562 16.8349 38.6906 17.0224 38.5594 17.2098C38.4281 17.3973 38.2687 17.5098 38.0812 17.5473L35.0438 18.4471C34.2938 18.6346 33.675 19.047 33.1875 19.6844C32.7 20.3218 32.4562 21.0342 32.4562 21.8215V22.5526H32.4C31.9125 22.5526 31.5 22.7214 31.1625 23.0588C30.825 23.3962 30.6562 23.8087 30.6562 24.2961V31.4948C30.6562 31.5323 30.6562 31.5511 30.6562 31.5511H26.3812C26.5687 31.2886 26.7094 30.9981 26.8031 30.6794C26.8969 30.3607 26.9437 30.0326 26.9437 29.6952V21.8215C26.9437 21.0342 26.7 20.3218 26.2125 19.6844C25.725 19.047 25.1062 18.6346 24.3562 18.4471L21.3188 17.5473C21.3188 17.5473 21.3094 17.5473 21.2906 17.5473C21.2719 17.5473 21.2437 17.5285 21.2062 17.491C21.9562 17.3785 22.6125 17.2379 23.175 17.0692C23.7375 16.9005 24.2062 16.7412 24.5812 16.5912C24.8062 16.5162 25.0031 16.4037 25.1719 16.2537C25.3406 16.1038 25.4812 15.9163 25.5938 15.6913C25.7062 15.5039 25.7625 15.2883 25.7625 15.0446C25.7625 14.8009 25.725 14.5853 25.65 14.3978C25.275 13.348 24.9562 12.092 24.6937 10.6297C24.4312 9.16747 24.2812 8.02392 24.2437 7.19906C24.0938 5.13692 23.3344 3.42159 21.9656 2.05308C20.5969 0.68457 18.975 0.000312805 17.1 0.000312805C15.1875 0.000312805 13.5469 0.68457 12.1781 2.05308C10.8094 3.42159 10.05 5.13692 9.9 7.19906C9.8625 8.02392 9.7125 9.16747 9.45 10.6297C9.1875 12.092 8.86875 13.348 8.49375 14.3978C8.41875 14.5853 8.39062 14.8009 8.40938 15.0446C8.42812 15.2883 8.475 15.5039 8.55 15.6913C8.6625 15.9163 8.80312 16.1038 8.97188 16.2537C9.14062 16.4037 9.3375 16.5162 9.5625 16.5912C9.9375 16.7412 10.4156 16.9005 10.9969 17.0692C11.5781 17.2379 12.225 17.3785 12.9375 17.491C12.9 17.5285 12.8812 17.5473 12.8812 17.5473C12.8812 17.5473 12.8625 17.5473 12.825 17.5473L9.7875 18.4471C9.0375 18.6346 8.41875 19.047 7.93125 19.6844C7.44375 20.3218 7.2 21.0342 7.2 21.8215V29.6952C7.2 30.0326 7.24687 30.3607 7.34062 30.6794C7.43437 30.9981 7.575 31.2886 7.7625 31.5511H0.84375C0.61875 31.5511 0.421875 31.6354 0.253125 31.8042C0.084375 31.9729 0 32.1697 0 32.3947C0 32.6571 0.084375 32.8634 0.253125 33.0133C0.421875 33.1633 0.61875 33.2383 0.84375 33.2383H1.8V41.4494C1.8 41.6743 1.88437 41.8712 2.05312 42.0399C2.22187 42.2086 2.41875 42.293 2.64375 42.293C2.86875 42.293 3.06562 42.2086 3.23438 42.0399C3.40312 41.8712 3.4875 41.6743 3.4875 41.4494V36.8939H10.8V41.4494C10.8 41.6743 10.8844 41.8712 11.0531 42.0399C11.2219 42.2086 11.4187 42.293 11.6437 42.293C11.9062 42.293 12.1125 42.2086 12.2625 42.0399C12.4125 41.8712 12.4875 41.6743 12.4875 41.4494V38.6936H21.6562V41.4494C21.6562 41.6743 21.7406 41.8712 21.9094 42.0399C22.0781 42.2086 22.275 42.293 22.5 42.293C22.725 42.293 22.9219 42.2086 23.0906 42.0399C23.2594 41.8712 23.3438 41.6743 23.3438 41.4494V36.8939H54.1125V41.4494C54.1125 41.6743 54.1969 41.8712 54.3656 42.0399C54.5344 42.2086 54.7312 42.293 54.9562 42.293C55.1812 42.293 55.3781 42.2086 55.5469 42.0399C55.7156 41.8712 55.8 41.6743 55.8 41.4494V33.2383H56.7562C56.9812 33.2383 57.1781 33.1633 57.3469 33.0133C57.5156 32.8634 57.6 32.6571 57.6 32.3947C57.6 32.1697 57.5156 31.9729 57.3469 31.8042C57.1781 31.6354 56.9812 31.5511 56.7562 31.5511ZM37.7437 10.5735V8.99875C37.7437 8.92376 37.7344 8.84878 37.7156 8.77379C37.6969 8.6988 37.6875 8.64256 37.6875 8.60507L37.125 7.5365C37.05 7.34904 36.9844 7.15219 36.9281 6.94598C36.8719 6.73977 36.8438 6.52418 36.8438 6.29922V6.24298C36.8438 5.26815 37.2 4.41517 37.9125 3.68405C38.625 2.95292 39.4875 2.58736 40.5 2.58736H47.8125V6.1305C47.8125 6.39295 47.775 6.66478 47.7 6.94598C47.625 7.22718 47.5312 7.49901 47.4187 7.76146L46.9688 8.60507C46.9312 8.64256 46.9125 8.6988 46.9125 8.77379C46.9125 8.84878 46.9125 8.92376 46.9125 8.99875V10.7984C46.9125 11.3983 46.7906 11.9795 46.5469 12.5419C46.3031 13.1043 45.9562 13.6104 45.5062 14.0604C45.0562 14.4728 44.55 14.7915 43.9875 15.0165C43.425 15.2414 42.825 15.3539 42.1875 15.3539C40.95 15.3164 39.9 14.829 39.0375 13.8917C38.175 12.9543 37.7437 11.8483 37.7437 10.5735ZM44.325 17.491L43.65 18.1659C43.4625 18.3534 43.2562 18.494 43.0312 18.5877C42.8062 18.6814 42.5625 18.7283 42.3 18.7283C42.075 18.7283 41.85 18.6814 41.625 18.5877C41.4 18.494 41.1937 18.3534 41.0062 18.1659L40.3312 17.491C40.3687 17.3785 40.3969 17.2567 40.4156 17.1255C40.4344 16.9942 40.4437 16.8724 40.4437 16.7599C40.7062 16.8349 40.9781 16.9005 41.2594 16.9567C41.5406 17.013 41.8312 17.0411 42.1312 17.0411C42.1688 17.0411 42.2062 17.0411 42.2437 17.0411C42.2812 17.0411 42.3187 17.0411 42.3563 17.0411C42.6562 17.0411 42.9656 17.013 43.2844 16.9567C43.6031 16.9005 43.9125 16.8349 44.2125 16.7599C44.2125 16.8724 44.2219 16.9942 44.2406 17.1255C44.2594 17.2567 44.2875 17.3785 44.325 17.491ZM34.1437 21.8215C34.1437 21.4091 34.275 21.0342 34.5375 20.6967C34.8 20.3593 35.1187 20.1343 35.4937 20.0218L38.5312 19.1782C38.6812 19.1407 38.8125 19.0939 38.925 19.0376C39.0375 18.9814 39.15 18.9158 39.2625 18.8408L39.825 19.4032C40.1625 19.7406 40.5469 19.9937 40.9781 20.1624C41.4094 20.3312 41.85 20.4155 42.3 20.4155C42.7875 20.4155 43.2469 20.3312 43.6781 20.1624C44.1094 19.9937 44.4937 19.7406 44.8312 19.4032L45.3937 18.8408C45.5062 18.9158 45.6187 18.9814 45.7312 19.0376C45.8438 19.0939 45.975 19.1407 46.125 19.1782L49.1625 20.0218C49.5375 20.1343 49.8562 20.3593 50.1187 20.6967C50.3812 21.0342 50.5125 21.4091 50.5125 21.8215V29.6952C50.5125 30.2201 50.325 30.6606 49.95 31.0168C49.575 31.373 49.1437 31.5511 48.6562 31.5511H44.9437C44.9812 31.5511 45 31.5511 45 31.5511C45 31.5511 45 31.5323 45 31.4948V29.6389H47.7562C47.9812 29.6389 48.1781 29.5546 48.3469 29.3858C48.5156 29.2171 48.6 29.0203 48.6 28.7953V23.3962C48.6 23.1713 48.5156 22.9744 48.3469 22.8057C48.1781 22.637 47.9812 22.5526 47.7562 22.5526C47.4937 22.5526 47.2875 22.637 47.1375 22.8057C46.9875 22.9744 46.9125 23.1713 46.9125 23.3962V27.9517H45V24.2961C45 23.8087 44.8219 23.3962 44.4656 23.0588C44.1094 22.7214 43.7062 22.5526 43.2562 22.5526H34.1437V21.8215ZM32.3438 24.2961C32.3438 24.2961 32.3531 24.2867 32.3719 24.268C32.3906 24.2492 32.4 24.2399 32.4 24.2399H43.2562C43.2562 24.2399 43.2656 24.2492 43.2844 24.268C43.3031 24.2867 43.3125 24.2961 43.3125 24.2961V31.4948C43.3125 31.5323 43.3031 31.5511 43.2844 31.5511C43.2656 31.5511 43.2562 31.5511 43.2562 31.5511H32.4C32.4 31.5511 32.3906 31.5511 32.3719 31.5511C32.3531 31.5511 32.3438 31.5323 32.3438 31.4948V24.2961ZM10.125 15.0165C10.125 15.0165 10.1156 15.0165 10.0969 15.0165C10.0781 15.0165 10.0687 14.9977 10.0687 14.9602C10.4812 13.8729 10.8281 12.5513 11.1094 10.9953C11.3906 9.4393 11.55 8.21139 11.5875 7.31154C11.6625 6.52418 11.8406 5.79306 12.1219 5.11818C12.4031 4.44329 12.8062 3.8434 13.3312 3.31849C13.8187 2.79358 14.3812 2.39052 15.0187 2.10932C15.6562 1.82812 16.35 1.68752 17.1 1.68752C17.8125 1.68752 18.4875 1.82812 19.125 2.10932C19.7625 2.39052 20.325 2.79358 20.8125 3.31849C21.3375 3.8434 21.7406 4.44329 22.0219 5.11818C22.3031 5.79306 22.4812 6.52418 22.5562 7.31154C22.6312 8.21139 22.8 9.4393 23.0625 10.9953C23.325 12.5513 23.6625 13.8729 24.075 14.9602C24.075 14.9977 24.0656 15.0165 24.0469 15.0165C24.0281 15.0165 24.0187 15.0165 24.0187 15.0165C23.3812 15.2414 22.4437 15.5039 21.2062 15.8038C19.9688 16.1038 18.6 16.2537 17.1 16.2537C15.5625 16.2537 14.175 16.1038 12.9375 15.8038C11.7 15.5039 10.7625 15.2414 10.125 15.0165ZM10.8 35.2067H3.4875V33.2383H10.8V35.2067ZM12.4875 37.0064V25.1959C12.4875 24.9335 12.5812 24.7085 12.7687 24.5211C12.9562 24.3336 13.1812 24.2399 13.4437 24.2399H20.7C20.9625 24.2399 21.1875 24.3336 21.375 24.5211C21.5625 24.7085 21.6562 24.9335 21.6562 25.1959V37.0064H12.4875ZM20.7 22.5526H13.4437C12.7312 22.5526 12.1125 22.8151 11.5875 23.34C11.0625 23.8649 10.8 24.4836 10.8 25.1959V31.5511H10.7437C10.2562 31.5511 9.825 31.373 9.45 31.0168C9.075 30.6606 8.8875 30.2201 8.8875 29.6952V21.8215C8.8875 21.4091 9.01875 21.0342 9.28125 20.6967C9.54375 20.3593 9.8625 20.1343 10.2375 20.0218L13.275 19.1782C13.65 19.0658 13.9781 18.897 14.2594 18.6721C14.5406 18.4471 14.7562 18.1659 14.9062 17.8285C15.2812 17.866 15.6469 17.8941 16.0031 17.9128C16.3594 17.9316 16.725 17.9409 17.1 17.9409C17.4375 17.9409 17.7937 17.9316 18.1687 17.9128C18.5437 17.8941 18.9 17.866 19.2375 17.8285C19.3875 18.1284 19.6031 18.4002 19.8844 18.6439C20.1656 18.8877 20.4937 19.0658 20.8687 19.1782L23.9062 20.0218C24.3187 20.1343 24.6469 20.3593 24.8906 20.6967C25.1344 21.0342 25.2562 21.4091 25.2562 21.8215V29.6952C25.2562 30.2201 25.0687 30.6606 24.6937 31.0168C24.3187 31.373 23.8875 31.5511 23.4 31.5511H23.3438V25.1959C23.3438 24.4836 23.0812 23.8649 22.5562 23.34C22.0312 22.8151 21.4125 22.5526 20.7 22.5526ZM23.3438 35.2067V33.2383H54.1125V35.2067H23.3438ZM38.6437 27.8955C38.6437 28.1204 38.5594 28.3173 38.3906 28.486C38.2219 28.6547 38.025 28.7391 37.8 28.7391C37.575 28.7391 37.3781 28.6547 37.2094 28.486C37.0406 28.3173 36.9562 28.1204 36.9562 27.8955C36.9562 27.6705 37.0406 27.4737 37.2094 27.3049C37.3781 27.1362 37.575 27.0519 37.8 27.0519C38.025 27.0519 38.2219 27.1362 38.3906 27.3049C38.5594 27.4737 38.6437 27.6705 38.6437 27.8955Z" fill="#0071B9"/>
</svg>
