<svg width="21" height="17" viewBox="0 0 21 17" fill="none" xmlns="http://www.w3.org/2000/svg">
<path d="M18.0906 4.4375C18.0906 4.63281 18.0906 4.78906 18.0906 4.98438C18.0906 10.4141 13.9891 16.625 6.45 16.625C4.10625 16.625 1.95781 15.9609 0.160938 14.7891C0.473438 14.8281 0.785938 14.8672 1.1375 14.8672C3.05156 14.8672 4.80938 14.2031 6.21563 13.1094C4.41875 13.0703 2.89531 11.8984 2.3875 10.2578C2.66094 10.2969 2.89531 10.3359 3.16875 10.3359C3.52031 10.3359 3.91094 10.2578 4.22344 10.1797C2.34844 9.78906 0.942188 8.14844 0.942188 6.15625V6.11719C1.48906 6.42969 2.15313 6.58594 2.81719 6.625C1.68438 5.88281 0.981251 4.63281 0.981251 3.22656C0.981251 2.44531 1.17656 1.74219 1.52813 1.15625C3.55938 3.61719 6.60625 5.25781 10.0047 5.45312C9.92656 5.14062 9.8875 4.82812 9.8875 4.51562C9.8875 2.25 11.7234 0.414062 13.9891 0.414062C15.1609 0.414062 16.2156 0.882812 16.9969 1.70312C17.8953 1.50781 18.7938 1.15625 19.575 0.6875C19.2625 1.66406 18.6375 2.44531 17.7781 2.95312C18.5984 2.875 19.4188 2.64062 20.1219 2.32812C19.575 3.14844 18.8719 3.85156 18.0906 4.4375Z" fill="white"/>
</svg>
